<?xml version="1.0" encoding="UTF-8"?>
<svg width="32px" height="29px" viewBox="0 0 32 29" version="1.1" xmlns="http://www.w3.org/2000/svg" xmlns:xlink="http://www.w3.org/1999/xlink">
    <!-- Generator: Sketch 56.3 (81716) - https://sketch.com -->
    <title>icon_241</title>
    <desc>Created with Sketch.</desc>
    <g id="Symbols" stroke="none" stroke-width="1" fill="none" fill-rule="evenodd">
        <g id="Asset/Icon/Social/LinkedIn_Black" transform="translate(0.000000, -2.000000)" fill="#000000">
            <path d="M32,31 L24.9275636,31 L24.9275636,20.80534 C24.9275636,18.1369021 23.8212604,16.3152338 21.3885229,16.3152338 C19.527752,16.3152338 18.4929447,17.5445351 18.0112887,18.7292692 C17.8306676,19.1545114 17.8588902,19.7468784 17.8588902,20.3392455 L17.8588902,31 L10.8523047,31 C10.8523047,31 10.9426153,12.9411541 10.8523047,11.2996091 L17.8588902,11.2996091 L17.8588902,14.3914325 C18.2728131,13.0395721 20.5117593,11.1102006 24.0846662,11.1102006 C28.5174036,11.1102006 32,13.9439074 32,20.0458474 L32,31 L32,31 Z M3.76669818,8.83543557 L3.72154255,8.83543557 C1.46378182,8.83543557 0,7.3294489 0,5.4205036 C0,3.47441873 1.50705527,2 3.80997164,2 C6.11100655,2 7.52586982,3.47070527 7.57102545,5.4149327 C7.57102545,7.323878 6.11100655,8.83543557 3.76669818,8.83543557 L3.76669818,8.83543557 L3.76669818,8.83543557 Z M0.807149818,11.2996091 L7.04421455,11.2996091 L7.04421455,31 L0.807149818,31 L0.807149818,11.2996091 L0.807149818,11.2996091 Z" id="icon_241"></path>
        </g>
    </g>
</svg>