<?xml version="1.0" encoding="UTF-8"?>
<svg width="32px" height="32px" viewBox="0 0 32 32" version="1.1" xmlns="http://www.w3.org/2000/svg" xmlns:xlink="http://www.w3.org/1999/xlink">
    <!-- Generator: Sketch 56.3 (81716) - https://sketch.com -->
    <title>pinterest</title>
    <desc>Created with Sketch.</desc>
    <g id="Symbols" stroke="none" stroke-width="1" fill="none" fill-rule="evenodd">
        <g id="Glasgow---Chef-Open-Day--Client-Feedback--Work-file:-Current-Clients/Benihana/Ad-Hoc/Glasgow-Chef-Open-day/Glasgow_Chef_Open_Day_01.ai" fill="#000000">
            <path d="M16.0006667,0 C7.16466667,0 0,7.16333333 0,16.0006667 C0,22.5506667 3.94,28.1806667 9.57866667,30.6546667 C9.53333333,29.5393333 9.57133333,28.1953333 9.85533333,26.98 C10.164,25.6813333 11.914,18.2633333 11.914,18.2633333 C11.914,18.2633333 11.404,17.2406667 11.404,15.73 C11.404,13.3593333 12.7793333,11.5886667 14.4893333,11.5886667 C15.9446667,11.5886667 16.648,12.682 16.648,13.9913333 C16.648,15.4533333 15.7146667,17.642 15.2346667,19.6686667 C14.834,21.3673333 16.0853333,22.7506667 17.76,22.7506667 C20.7913333,22.7506667 22.8326667,18.8573333 22.8326667,14.244 C22.8326667,10.738 20.4713333,8.11333333 16.1753333,8.11333333 C11.3226667,8.11333333 8.29933333,11.732 8.29933333,15.7733333 C8.29933333,17.1693333 8.70933333,18.152 9.35266667,18.912 C9.65066667,19.264 9.69,19.4026667 9.58266667,19.8053333 C9.50733333,20.0973333 9.33066667,20.8086667 9.25733333,21.0893333 C9.15,21.4933333 8.822,21.64 8.45733333,21.4893333 C6.22,20.5766667 5.18,18.1286667 5.18,15.376 C5.18,10.8326667 9.01266667,5.37933333 16.614,5.37933333 C22.7233333,5.37933333 26.7446667,9.80333333 26.7446667,14.5466667 C26.7446667,20.8233333 23.256,25.5126667 18.11,25.5126667 C16.3846667,25.5126667 14.7586667,24.5793333 14.202,23.52 C14.202,23.52 13.2726667,27.206 13.0766667,27.9173333 C12.738,29.15 12.074,30.384 11.466,31.344 C12.9053333,31.7686667 14.426,32 16.0006667,32 C24.836,32 32,24.8373333 32,16.0006667 C32,7.16333333 24.836,0 16.0006667,0" id="pinterest"></path>
        </g>
    </g>
</svg>