<?xml version="1.0" encoding="UTF-8"?>
<svg width="32px" height="28px" viewBox="0 0 32 28" version="1.1" xmlns="http://www.w3.org/2000/svg" xmlns:xlink="http://www.w3.org/1999/xlink">
    <!-- Generator: Sketch 56.3 (81716) - https://sketch.com -->
    <title>icon_242</title>
    <desc>Created with Sketch.</desc>
    <g id="Symbols" stroke="none" stroke-width="1" fill="none" fill-rule="evenodd">
        <g id="Asset/Icon/Social/Twitter_Black" transform="translate(0.000000, -2.000000)" fill="#000000">
            <path d="M32,5.823522 C30.824206,6.35897467 29.5582553,6.72107867 28.230322,6.88287 C29.5864293,6.05080067 30.626988,4.73143133 31.1172153,3.15974467 C29.8475087,3.93017933 28.4444447,4.49067067 26.9455893,4.79114 C25.7510127,3.48332733 24.0436693,2.66666667 22.1541353,2.66666667 C18.530962,2.66666667 15.5914773,5.680992 15.5914773,9.39833867 C15.5914773,9.92608667 15.6478253,10.4384253 15.7605213,10.9315033 C10.3041613,10.6502947 5.46762933,7.97303467 2.227622,3.89551 C1.66226467,4.89322267 1.33920267,6.05080067 1.33920267,7.283496 C1.33920267,9.61791267 2.49809267,11.6788253 4.25990467,12.8864813 C3.18553733,12.853738 2.171274,12.54749 1.28473333,12.0467073 L1.28473333,12.1295293 C1.28473333,15.39232 3.54804267,18.11388 6.55326667,18.7302273 C6.00293467,18.8881667 5.42255067,18.967136 4.82338467,18.967136 C4.40077467,18.967136 3.98755667,18.9266887 3.587486,18.8477187 C4.423314,21.5211267 6.846276,23.4684 9.72002133,23.5204047 C7.473616,25.3270733 4.64119267,26.403756 1.56647267,26.403756 C1.036802,26.403756 0.512766,26.3729387 0,26.311304 C2.905676,28.2181293 6.35792667,29.3333333 10.0637433,29.3333333 C22.1409873,29.3333333 28.7430887,19.0769233 28.7430887,10.18033 C28.7430887,9.88756467 28.737454,9.59479933 28.726184,9.30781267 C30.0090393,8.358252 31.12285,7.17370867 32,5.823522" id="icon_242"></path>
        </g>
    </g>
</svg>